<?xml version="1.0" encoding="UTF-8" standalone="no"?>
<!DOCTYPE svg PUBLIC "-//W3C//DTD SVG 1.1//EN"
 "http://www.w3.org/Graphics/SVG/1.1/DTD/svg11.dtd">
<!-- Generated by graphviz version 2.30.1 (20201013.1554)
 -->
<!-- Title: snakemake_dag Pages: 1 -->
<svg width="661pt" height="692pt"
 viewBox="0.00 0.00 660.62 692.00" xmlns="http://www.w3.org/2000/svg" xmlns:xlink="http://www.w3.org/1999/xlink">
<g id="graph0" class="graph" transform="scale(1 1) rotate(0) translate(4 688)">
<title>snakemake_dag</title>
<polygon fill="white" stroke="white" points="-4,5 -4,-688 657.622,-688 657.622,5 -4,5"/>
<!-- 0 -->
<g id="node1" class="node"><title>0</title>
<path fill="none" stroke="#59d856" stroke-width="2" d="M245.872,-252C245.872,-252 203.372,-252 203.372,-252 197.372,-252 191.372,-246 191.372,-240 191.372,-240 191.372,-228 191.372,-228 191.372,-222 197.372,-216 203.372,-216 203.372,-216 245.872,-216 245.872,-216 251.872,-216 257.872,-222 257.872,-228 257.872,-228 257.872,-240 257.872,-240 257.872,-246 251.872,-252 245.872,-252"/>
<text text-anchor="middle" x="224.622" y="-231.5" font-family="sans" font-size="10.00">deliver_qc</text>
</g>
<!-- 15 -->
<g id="node16" class="node"><title>15</title>
<path fill="none" stroke="#56c1d8" stroke-width="2" d="M184.622,-180C184.622,-180 110.622,-180 110.622,-180 104.622,-180 98.6216,-174 98.6216,-168 98.6216,-168 98.6216,-156 98.6216,-156 98.6216,-150 104.622,-144 110.622,-144 110.622,-144 184.622,-144 184.622,-144 190.622,-144 196.622,-150 196.622,-156 196.622,-156 196.622,-168 196.622,-168 196.622,-174 190.622,-180 184.622,-180"/>
<text text-anchor="middle" x="147.622" y="-159.5" font-family="sans" font-size="10.00">deliver_bamfiles</text>
</g>
<!-- 0&#45;&gt;15 -->
<g id="edge24" class="edge"><title>0&#45;&gt;15</title>
<path fill="none" stroke="grey" stroke-width="2" d="M205.588,-215.697C196.077,-207.05 184.415,-196.449 174.051,-187.027"/>
<polygon fill="grey" stroke="grey" points="176.19,-184.241 166.436,-180.104 171.481,-189.421 176.19,-184.241"/>
</g>
<!-- 16 -->
<g id="node17" class="node"><title>16</title>
<path fill="none" stroke="#56d88a" stroke-width="2" d="M294.622,-108C294.622,-108 230.622,-108 230.622,-108 224.622,-108 218.622,-102 218.622,-96 218.622,-96 218.622,-84 218.622,-84 218.622,-78 224.622,-72 230.622,-72 230.622,-72 294.622,-72 294.622,-72 300.622,-72 306.622,-78 306.622,-84 306.622,-84 306.622,-96 306.622,-96 306.622,-102 300.622,-108 294.622,-108"/>
<text text-anchor="middle" x="262.622" y="-87.5" font-family="sans" font-size="10.00">deliver_counts</text>
</g>
<!-- 0&#45;&gt;16 -->
<g id="edge26" class="edge"><title>0&#45;&gt;16</title>
<path fill="none" stroke="grey" stroke-width="2" d="M229.205,-215.871C235.71,-191.564 247.684,-146.819 255.393,-118.013"/>
<polygon fill="grey" stroke="grey" points="258.818,-118.754 258.022,-108.189 252.055,-116.945 258.818,-118.754"/>
</g>
<!-- 21 -->
<g id="node22" class="node"><title>21</title>
<path fill="none" stroke="#d87d56" stroke-width="2" d="M423.622,-36C423.622,-36 351.622,-36 351.622,-36 345.622,-36 339.622,-30 339.622,-24 339.622,-24 339.622,-12 339.622,-12 339.622,-6 345.622,-0 351.622,-0 351.622,-0 423.622,-0 423.622,-0 429.622,-0 435.622,-6 435.622,-12 435.622,-12 435.622,-24 435.622,-24 435.622,-30 429.622,-36 423.622,-36"/>
<text text-anchor="middle" x="387.622" y="-15.5" font-family="sans" font-size="10.00">deliver_analysis</text>
</g>
<!-- 0&#45;&gt;21 -->
<g id="edge36" class="edge"><title>0&#45;&gt;21</title>
<path fill="none" stroke="grey" stroke-width="2" d="M257.9,-233.657C298.444,-232.433 365.496,-223.441 397.622,-180 426.72,-140.652 411.433,-80.0024 398.798,-45.468"/>
<polygon fill="grey" stroke="grey" points="402.033,-44.1292 395.179,-36.0501 395.499,-46.6401 402.033,-44.1292"/>
</g>
<!-- 1 -->
<g id="node2" class="node"><title>1</title>
<path fill="none" stroke="#8fd856" stroke-width="2" d="M239.622,-324C239.622,-324 209.622,-324 209.622,-324 203.622,-324 197.622,-318 197.622,-312 197.622,-312 197.622,-300 197.622,-300 197.622,-294 203.622,-288 209.622,-288 209.622,-288 239.622,-288 239.622,-288 245.622,-288 251.622,-294 251.622,-300 251.622,-300 251.622,-312 251.622,-312 251.622,-318 245.622,-324 239.622,-324"/>
<text text-anchor="middle" x="224.622" y="-303.5" font-family="sans" font-size="10.00">multiqc</text>
</g>
<!-- 1&#45;&gt;0 -->
<g id="edge1" class="edge"><title>1&#45;&gt;0</title>
<path fill="none" stroke="grey" stroke-width="2" d="M224.622,-287.697C224.622,-279.983 224.622,-270.712 224.622,-262.112"/>
<polygon fill="grey" stroke="grey" points="228.122,-262.104 224.622,-252.104 221.122,-262.104 228.122,-262.104"/>
</g>
<!-- 2 -->
<g id="node3" class="node"><title>2</title>
<path fill="none" stroke="#d8b456" stroke-width="2" d="M73.6216,-612C73.6216,-612 43.6216,-612 43.6216,-612 37.6216,-612 31.6216,-606 31.6216,-600 31.6216,-600 31.6216,-588 31.6216,-588 31.6216,-582 37.6216,-576 43.6216,-576 43.6216,-576 73.6216,-576 73.6216,-576 79.6216,-576 85.6216,-582 85.6216,-588 85.6216,-588 85.6216,-600 85.6216,-600 85.6216,-606 79.6216,-612 73.6216,-612"/>
<text text-anchor="middle" x="58.6216" y="-591.5" font-family="sans" font-size="10.00">fastp</text>
</g>
<!-- 2&#45;&gt;1 -->
<g id="edge6" class="edge"><title>2&#45;&gt;1</title>
<path fill="none" stroke="grey" stroke-width="2" d="M48.1628,-575.944C24.1036,-534.288 -29.3306,-425.963 21.6216,-360 41.7135,-333.989 134.361,-318.312 187.282,-311.326"/>
<polygon fill="grey" stroke="grey" points="187.829,-314.784 197.304,-310.044 186.94,-307.841 187.829,-314.784"/>
</g>
<!-- 6 -->
<g id="node7" class="node"><title>6</title>
<path fill="none" stroke="#56d89a" stroke-width="2" d="M287.622,-540C287.622,-540 257.622,-540 257.622,-540 251.622,-540 245.622,-534 245.622,-528 245.622,-528 245.622,-516 245.622,-516 245.622,-510 251.622,-504 257.622,-504 257.622,-504 287.622,-504 287.622,-504 293.622,-504 299.622,-510 299.622,-516 299.622,-516 299.622,-528 299.622,-528 299.622,-534 293.622,-540 287.622,-540"/>
<text text-anchor="middle" x="272.622" y="-519.5" font-family="sans" font-size="10.00">star</text>
</g>
<!-- 2&#45;&gt;6 -->
<g id="edge12" class="edge"><title>2&#45;&gt;6</title>
<path fill="none" stroke="grey" stroke-width="2" d="M85.7248,-584.134C123.729,-571.703 192.977,-549.052 235.674,-535.086"/>
<polygon fill="grey" stroke="grey" points="236.985,-538.339 245.401,-531.904 234.809,-531.686 236.985,-538.339"/>
</g>
<!-- 3 -->
<g id="node4" class="node"><title>3</title>
<path fill="none" stroke="#56d8c1" stroke-width="2" d="M90.8716,-684C90.8716,-684 26.3716,-684 26.3716,-684 20.3716,-684 14.3716,-678 14.3716,-672 14.3716,-672 14.3716,-660 14.3716,-660 14.3716,-654 20.3716,-648 26.3716,-648 26.3716,-648 90.8716,-648 90.8716,-648 96.8716,-648 102.872,-654 102.872,-660 102.872,-660 102.872,-672 102.872,-672 102.872,-678 96.8716,-684 90.8716,-684"/>
<text text-anchor="middle" x="58.6216" y="-663.5" font-family="sans" font-size="10.00">fastq_combine</text>
</g>
<!-- 3&#45;&gt;2 -->
<g id="edge8" class="edge"><title>3&#45;&gt;2</title>
<path fill="none" stroke="grey" stroke-width="2" d="M58.6216,-647.697C58.6216,-639.983 58.6216,-630.712 58.6216,-622.112"/>
<polygon fill="grey" stroke="grey" points="62.1217,-622.104 58.6216,-612.104 55.1217,-622.104 62.1217,-622.104"/>
</g>
<!-- 4 -->
<g id="node5" class="node"><title>4</title>
<path fill="none" stroke="#5673d8" stroke-width="2" d="M113.872,-396C113.872,-396 43.3716,-396 43.3716,-396 37.3716,-396 31.3716,-390 31.3716,-384 31.3716,-384 31.3716,-372 31.3716,-372 31.3716,-366 37.3716,-360 43.3716,-360 43.3716,-360 113.872,-360 113.872,-360 119.872,-360 125.872,-366 125.872,-372 125.872,-372 125.872,-384 125.872,-384 125.872,-390 119.872,-396 113.872,-396"/>
<text text-anchor="middle" x="78.6216" y="-375.5" font-family="sans" font-size="10.00">star_index_bam</text>
</g>
<!-- 4&#45;&gt;1 -->
<g id="edge5" class="edge"><title>4&#45;&gt;1</title>
<path fill="none" stroke="grey" stroke-width="2" d="M114.337,-359.876C136.793,-349.11 165.683,-335.258 188.26,-324.433"/>
<polygon fill="grey" stroke="grey" points="190.009,-327.477 197.513,-319.997 186.983,-321.165 190.009,-327.477"/>
</g>
<!-- 4&#45;&gt;15 -->
<g id="edge23" class="edge"><title>4&#45;&gt;15</title>
<path fill="none" stroke="grey" stroke-width="2" d="M84.1515,-359.849C96.1375,-322.675 124.588,-234.439 138.974,-189.82"/>
<polygon fill="grey" stroke="grey" points="142.328,-190.824 142.065,-180.232 135.665,-188.676 142.328,-190.824"/>
</g>
<!-- 5 -->
<g id="node6" class="node"><title>5</title>
<path fill="none" stroke="#d89c56" stroke-width="2" d="M265.872,-468C265.872,-468 231.372,-468 231.372,-468 225.372,-468 219.372,-462 219.372,-456 219.372,-456 219.372,-444 219.372,-444 219.372,-438 225.372,-432 231.372,-432 231.372,-432 265.872,-432 265.872,-432 271.872,-432 277.872,-438 277.872,-444 277.872,-444 277.872,-456 277.872,-456 277.872,-462 271.872,-468 265.872,-468"/>
<text text-anchor="middle" x="248.622" y="-447.5" font-family="sans" font-size="10.00">star_link</text>
</g>
<!-- 5&#45;&gt;1 -->
<g id="edge4" class="edge"><title>5&#45;&gt;1</title>
<path fill="none" stroke="grey" stroke-width="2" d="M219.309,-436.698C202.64,-427.991 183.226,-414.547 173.622,-396 166.264,-381.792 167.641,-374.84 173.622,-360 177.97,-349.209 185.683,-339.386 193.815,-331.209"/>
<polygon fill="grey" stroke="grey" points="196.412,-333.572 201.317,-324.181 191.626,-328.464 196.412,-333.572"/>
</g>
<!-- 5&#45;&gt;4 -->
<g id="edge9" class="edge"><title>5&#45;&gt;4</title>
<path fill="none" stroke="grey" stroke-width="2" d="M219.01,-436.807C194.288,-426.627 158.495,-411.889 129.238,-399.842"/>
<polygon fill="grey" stroke="grey" points="130.57,-396.606 119.991,-396.034 127.905,-403.078 130.57,-396.606"/>
</g>
<!-- 10 -->
<g id="node11" class="node"><title>10</title>
<path fill="none" stroke="#d87556" stroke-width="2" d="M462.622,-396C462.622,-396 344.622,-396 344.622,-396 338.622,-396 332.622,-390 332.622,-384 332.622,-384 332.622,-372 332.622,-372 332.622,-366 338.622,-360 344.622,-360 344.622,-360 462.622,-360 462.622,-360 468.622,-360 474.622,-366 474.622,-372 474.622,-372 474.622,-384 474.622,-384 474.622,-390 468.622,-396 462.622,-396"/>
<text text-anchor="middle" x="403.622" y="-375.5" font-family="sans" font-size="10.00">rseqc_junction_saturation</text>
</g>
<!-- 5&#45;&gt;10 -->
<g id="edge16" class="edge"><title>5&#45;&gt;10</title>
<path fill="none" stroke="grey" stroke-width="2" d="M278.141,-435.669C300.358,-425.635 331.248,-411.685 356.819,-400.137"/>
<polygon fill="grey" stroke="grey" points="358.301,-403.308 365.974,-396.002 355.419,-396.928 358.301,-403.308"/>
</g>
<!-- 12 -->
<g id="node13" class="node"><title>12</title>
<path fill="none" stroke="#80d856" stroke-width="2" d="M574.622,-396C574.622,-396 504.622,-396 504.622,-396 498.622,-396 492.622,-390 492.622,-384 492.622,-384 492.622,-372 492.622,-372 492.622,-366 498.622,-360 504.622,-360 504.622,-360 574.622,-360 574.622,-360 580.622,-360 586.622,-366 586.622,-372 586.622,-372 586.622,-384 586.622,-384 586.622,-390 580.622,-396 574.622,-396"/>
<text text-anchor="middle" x="539.622" y="-375.5" font-family="sans" font-size="10.00">rseqc_bam_stat</text>
</g>
<!-- 5&#45;&gt;12 -->
<g id="edge19" class="edge"><title>5&#45;&gt;12</title>
<path fill="none" stroke="grey" stroke-width="2" d="M278.098,-443.073C320.948,-434.301 403.128,-416.893 482.208,-396.282"/>
<polygon fill="grey" stroke="grey" points="483.553,-399.547 492.334,-393.62 481.773,-392.777 483.553,-399.547"/>
</g>
<!-- 13 -->
<g id="node14" class="node"><title>13</title>
<path fill="none" stroke="#56d8d0" stroke-width="2" d="M301.872,-396C301.872,-396 195.372,-396 195.372,-396 189.372,-396 183.372,-390 183.372,-384 183.372,-384 183.372,-372 183.372,-372 183.372,-366 189.372,-360 195.372,-360 195.372,-360 301.872,-360 301.872,-360 307.872,-360 313.872,-366 313.872,-372 313.872,-372 313.872,-384 313.872,-384 313.872,-390 307.872,-396 301.872,-396"/>
<text text-anchor="middle" x="248.622" y="-375.5" font-family="sans" font-size="10.00">rseqc_read_distribution</text>
</g>
<!-- 5&#45;&gt;13 -->
<g id="edge21" class="edge"><title>5&#45;&gt;13</title>
<path fill="none" stroke="grey" stroke-width="2" d="M248.622,-431.697C248.622,-423.983 248.622,-414.712 248.622,-406.112"/>
<polygon fill="grey" stroke="grey" points="252.122,-406.104 248.622,-396.104 245.122,-406.104 252.122,-406.104"/>
</g>
<!-- 5&#45;&gt;15 -->
<g id="edge25" class="edge"><title>5&#45;&gt;15</title>
<path fill="none" stroke="grey" stroke-width="2" d="M218.989,-446.55C163.195,-441.257 45.9578,-426.673 21.6216,-396 -33.1843,-326.924 64.793,-230.612 117.432,-186.614"/>
<polygon fill="grey" stroke="grey" points="119.958,-189.068 125.461,-180.014 115.513,-183.661 119.958,-189.068"/>
</g>
<!-- 6&#45;&gt;5 -->
<g id="edge10" class="edge"><title>6&#45;&gt;5</title>
<path fill="none" stroke="grey" stroke-width="2" d="M266.689,-503.697C264.015,-495.898 260.796,-486.509 257.82,-477.829"/>
<polygon fill="grey" stroke="grey" points="261.04,-476.429 254.486,-468.104 254.418,-478.699 261.04,-476.429"/>
</g>
<!-- 17 -->
<g id="node18" class="node"><title>17</title>
<path fill="none" stroke="#56d863" stroke-width="2" d="M537.872,-252C537.872,-252 481.372,-252 481.372,-252 475.372,-252 469.372,-246 469.372,-240 469.372,-240 469.372,-228 469.372,-228 469.372,-222 475.372,-216 481.372,-216 481.372,-216 537.872,-216 537.872,-216 543.872,-216 549.872,-222 549.872,-228 549.872,-228 549.872,-240 549.872,-240 549.872,-246 543.872,-252 537.872,-252"/>
<text text-anchor="middle" x="509.622" y="-231.5" font-family="sans" font-size="10.00">count_matrix</text>
</g>
<!-- 6&#45;&gt;17 -->
<g id="edge30" class="edge"><title>6&#45;&gt;17</title>
<path fill="none" stroke="grey" stroke-width="2" d="M299.88,-520.636C365.763,-518.063 532.829,-501.022 595.622,-396 624.044,-348.462 573.569,-290.789 538.68,-258.979"/>
<polygon fill="grey" stroke="grey" points="540.874,-256.245 531.073,-252.221 536.225,-261.479 540.874,-256.245"/>
</g>
<!-- 7 -->
<g id="node8" class="node"><title>7</title>
<path fill="none" stroke="#568ad8" stroke-width="2" d="M316.872,-612C316.872,-612 228.372,-612 228.372,-612 222.372,-612 216.372,-606 216.372,-600 216.372,-600 216.372,-588 216.372,-588 216.372,-582 222.372,-576 228.372,-576 228.372,-576 316.872,-576 316.872,-576 322.872,-576 328.872,-582 328.872,-588 328.872,-588 328.872,-600 328.872,-600 328.872,-606 322.872,-612 316.872,-612"/>
<text text-anchor="middle" x="272.622" y="-591.5" font-family="sans" font-size="10.00">star_index_genome</text>
</g>
<!-- 7&#45;&gt;6 -->
<g id="edge11" class="edge"><title>7&#45;&gt;6</title>
<path fill="none" stroke="grey" stroke-width="2" d="M272.622,-575.697C272.622,-567.983 272.622,-558.712 272.622,-550.112"/>
<polygon fill="grey" stroke="grey" points="276.122,-550.104 272.622,-540.104 269.122,-550.104 276.122,-550.104"/>
</g>
<!-- 8 -->
<g id="node9" class="node"><title>8</title>
<path fill="none" stroke="#56d8b9" stroke-width="2" d="M311.872,-684C311.872,-684 227.372,-684 227.372,-684 221.372,-684 215.372,-678 215.372,-672 215.372,-672 215.372,-660 215.372,-660 215.372,-654 221.372,-648 227.372,-648 227.372,-648 311.872,-648 311.872,-648 317.872,-648 323.872,-654 323.872,-660 323.872,-660 323.872,-672 323.872,-672 323.872,-678 317.872,-684 311.872,-684"/>
<text text-anchor="middle" x="269.622" y="-663.5" font-family="sans" font-size="10.00">download_genome</text>
</g>
<!-- 8&#45;&gt;7 -->
<g id="edge15" class="edge"><title>8&#45;&gt;7</title>
<path fill="none" stroke="grey" stroke-width="2" d="M270.363,-647.697C270.694,-639.983 271.091,-630.712 271.46,-622.112"/>
<polygon fill="grey" stroke="grey" points="274.957,-622.245 271.889,-612.104 267.963,-621.945 274.957,-622.245"/>
</g>
<!-- 9 -->
<g id="node10" class="node"><title>9</title>
<path fill="none" stroke="#ced856" stroke-width="2" d="M452.622,-684C452.622,-684 354.622,-684 354.622,-684 348.622,-684 342.622,-678 342.622,-672 342.622,-672 342.622,-660 342.622,-660 342.622,-654 348.622,-648 354.622,-648 354.622,-648 452.622,-648 452.622,-648 458.622,-648 464.622,-654 464.622,-660 464.622,-660 464.622,-672 464.622,-672 464.622,-678 458.622,-684 452.622,-684"/>
<text text-anchor="middle" x="403.622" y="-663.5" font-family="sans" font-size="10.00">download_annotation</text>
</g>
<!-- 9&#45;&gt;6 -->
<g id="edge13" class="edge"><title>9&#45;&gt;6</title>
<path fill="none" stroke="grey" stroke-width="2" d="M392.842,-647.959C380.624,-629.291 359.544,-598.953 337.622,-576 327.604,-565.511 315.542,-555.161 304.542,-546.429"/>
<polygon fill="grey" stroke="grey" points="306.432,-543.465 296.389,-540.092 302.136,-548.992 306.432,-543.465"/>
</g>
<!-- 9&#45;&gt;7 -->
<g id="edge14" class="edge"><title>9&#45;&gt;7</title>
<path fill="none" stroke="grey" stroke-width="2" d="M371.575,-647.876C354.13,-638.554 332.357,-626.919 313.679,-616.939"/>
<polygon fill="grey" stroke="grey" points="315.26,-613.816 304.791,-612.19 311.961,-619.99 315.26,-613.816"/>
</g>
<!-- 11 -->
<g id="node12" class="node"><title>11</title>
<path fill="none" stroke="#97d856" stroke-width="2" d="M440.872,-468C440.872,-468 366.372,-468 366.372,-468 360.372,-468 354.372,-462 354.372,-456 354.372,-456 354.372,-444 354.372,-444 354.372,-438 360.372,-432 366.372,-432 366.372,-432 440.872,-432 440.872,-432 446.872,-432 452.872,-438 452.872,-444 452.872,-444 452.872,-456 452.872,-456 452.872,-462 446.872,-468 440.872,-468"/>
<text text-anchor="middle" x="403.622" y="-447.5" font-family="sans" font-size="10.00">rseqc_make_bed</text>
</g>
<!-- 9&#45;&gt;11 -->
<g id="edge18" class="edge"><title>9&#45;&gt;11</title>
<path fill="none" stroke="grey" stroke-width="2" d="M403.622,-647.849C403.622,-610.832 403.622,-523.181 403.622,-478.386"/>
<polygon fill="grey" stroke="grey" points="407.122,-478.232 403.622,-468.232 400.122,-478.232 407.122,-478.232"/>
</g>
<!-- 19 -->
<g id="node20" class="node"><title>19</title>
<path fill="none" stroke="#d85656" stroke-width="2" d="M603.872,-540C603.872,-540 529.372,-540 529.372,-540 523.372,-540 517.372,-534 517.372,-528 517.372,-528 517.372,-516 517.372,-516 517.372,-510 523.372,-504 529.372,-504 529.372,-504 603.872,-504 603.872,-504 609.872,-504 615.872,-510 615.872,-516 615.872,-516 615.872,-528 615.872,-528 615.872,-534 609.872,-540 603.872,-540"/>
<text text-anchor="middle" x="566.622" y="-519.5" font-family="sans" font-size="10.00">make_genes_file</text>
</g>
<!-- 9&#45;&gt;19 -->
<g id="edge33" class="edge"><title>9&#45;&gt;19</title>
<path fill="none" stroke="grey" stroke-width="2" d="M423.283,-647.871C452.165,-622.711 506.181,-575.654 539.025,-547.042"/>
<polygon fill="grey" stroke="grey" points="541.649,-549.397 546.89,-540.189 537.051,-544.119 541.649,-549.397"/>
</g>
<!-- 10&#45;&gt;1 -->
<g id="edge3" class="edge"><title>10&#45;&gt;1</title>
<path fill="none" stroke="grey" stroke-width="2" d="M359.833,-359.876C329.65,-348.073 289.987,-332.562 261.433,-321.396"/>
<polygon fill="grey" stroke="grey" points="262.419,-318.023 251.831,-317.64 259.869,-324.542 262.419,-318.023"/>
</g>
<!-- 11&#45;&gt;10 -->
<g id="edge17" class="edge"><title>11&#45;&gt;10</title>
<path fill="none" stroke="grey" stroke-width="2" d="M403.622,-431.697C403.622,-423.983 403.622,-414.712 403.622,-406.112"/>
<polygon fill="grey" stroke="grey" points="407.122,-406.104 403.622,-396.104 400.122,-406.104 407.122,-406.104"/>
</g>
<!-- 11&#45;&gt;12 -->
<g id="edge20" class="edge"><title>11&#45;&gt;12</title>
<path fill="none" stroke="grey" stroke-width="2" d="M436.891,-431.876C455.085,-422.512 477.812,-410.814 497.262,-400.803"/>
<polygon fill="grey" stroke="grey" points="498.935,-403.878 506.224,-396.19 495.731,-397.654 498.935,-403.878"/>
</g>
<!-- 11&#45;&gt;13 -->
<g id="edge22" class="edge"><title>11&#45;&gt;13</title>
<path fill="none" stroke="grey" stroke-width="2" d="M365.704,-431.876C344.609,-422.349 318.165,-410.407 295.749,-400.283"/>
<polygon fill="grey" stroke="grey" points="296.97,-396.994 286.416,-396.068 294.089,-403.374 296.97,-396.994"/>
</g>
<!-- 12&#45;&gt;1 -->
<g id="edge7" class="edge"><title>12&#45;&gt;1</title>
<path fill="none" stroke="grey" stroke-width="2" d="M492.352,-362.313C489.405,-361.502 486.478,-360.724 483.622,-360 405.328,-340.151 312.284,-322.546 261.768,-313.479"/>
<polygon fill="grey" stroke="grey" points="262.113,-309.986 251.654,-311.677 260.885,-316.877 262.113,-309.986"/>
</g>
<!-- 13&#45;&gt;1 -->
<g id="edge2" class="edge"><title>13&#45;&gt;1</title>
<path fill="none" stroke="grey" stroke-width="2" d="M242.689,-359.697C240.015,-351.898 236.796,-342.509 233.82,-333.829"/>
<polygon fill="grey" stroke="grey" points="237.04,-332.429 230.486,-324.104 230.418,-334.699 237.04,-332.429"/>
</g>
<!-- 14 -->
<g id="node15" class="node"><title>14</title>
<path fill="none" stroke="#56d882" stroke-width="2" d="M376.622,-180C376.622,-180 302.622,-180 302.622,-180 296.622,-180 290.622,-174 290.622,-168 290.622,-168 290.622,-156 290.622,-156 290.622,-150 296.622,-144 302.622,-144 302.622,-144 376.622,-144 376.622,-144 382.622,-144 388.622,-150 388.622,-156 388.622,-156 388.622,-168 388.622,-168 388.622,-174 382.622,-180 376.622,-180"/>
<text text-anchor="middle" x="339.622" y="-159.5" font-family="sans" font-size="10.00">deliver_methods</text>
</g>
<!-- 14&#45;&gt;16 -->
<g id="edge27" class="edge"><title>14&#45;&gt;16</title>
<path fill="none" stroke="grey" stroke-width="2" d="M320.588,-143.697C311.077,-135.05 299.415,-124.449 289.051,-115.027"/>
<polygon fill="grey" stroke="grey" points="291.19,-112.241 281.436,-108.104 286.481,-117.421 291.19,-112.241"/>
</g>
<!-- 14&#45;&gt;21 -->
<g id="edge37" class="edge"><title>14&#45;&gt;21</title>
<path fill="none" stroke="grey" stroke-width="2" d="M345.412,-143.871C353.628,-119.564 368.753,-74.8187 378.49,-46.0132"/>
<polygon fill="grey" stroke="grey" points="381.924,-46.7835 381.811,-36.1893 375.293,-44.5419 381.924,-46.7835"/>
</g>
<!-- 15&#45;&gt;16 -->
<g id="edge28" class="edge"><title>15&#45;&gt;16</title>
<path fill="none" stroke="grey" stroke-width="2" d="M175.754,-143.876C190.79,-134.724 209.489,-123.342 225.682,-113.485"/>
<polygon fill="grey" stroke="grey" points="227.659,-116.379 234.381,-108.19 224.019,-110.4 227.659,-116.379"/>
</g>
<!-- 15&#45;&gt;21 -->
<g id="edge35" class="edge"><title>15&#45;&gt;21</title>
<path fill="none" stroke="grey" stroke-width="2" d="M155.127,-143.965C164.849,-123.847 183.677,-90.753 209.622,-72 244.854,-46.5341 292.347,-33.1913 329.414,-26.2656"/>
<polygon fill="grey" stroke="grey" points="330.332,-29.658 339.574,-24.4776 329.118,-22.7639 330.332,-29.658"/>
</g>
<!-- 16&#45;&gt;21 -->
<g id="edge38" class="edge"><title>16&#45;&gt;21</title>
<path fill="none" stroke="grey" stroke-width="2" d="M293.2,-71.8761C309.695,-62.6388 330.245,-51.1308 347.958,-41.2116"/>
<polygon fill="grey" stroke="grey" points="349.911,-44.1296 356.926,-36.1898 346.49,-38.0221 349.911,-44.1296"/>
</g>
<!-- 17&#45;&gt;16 -->
<g id="edge29" class="edge"><title>17&#45;&gt;16</title>
<path fill="none" stroke="grey" stroke-width="2" d="M469.015,-228.775C410.697,-221.869 307.392,-206.24 281.622,-180 265.836,-163.926 261.741,-138.146 261.21,-118.459"/>
<polygon fill="grey" stroke="grey" points="264.711,-118.257 261.231,-108.25 257.711,-118.243 264.711,-118.257"/>
</g>
<!-- 18 -->
<g id="node19" class="node"><title>18</title>
<path fill="none" stroke="#d8ac56" stroke-width="2" d="M524.622,-180C524.622,-180 494.622,-180 494.622,-180 488.622,-180 482.622,-174 482.622,-168 482.622,-168 482.622,-156 482.622,-156 482.622,-150 488.622,-144 494.622,-144 494.622,-144 524.622,-144 524.622,-144 530.622,-144 536.622,-150 536.622,-156 536.622,-156 536.622,-168 536.622,-168 536.622,-174 530.622,-180 524.622,-180"/>
<text text-anchor="middle" x="509.622" y="-159.5" font-family="sans" font-size="10.00">deseq</text>
</g>
<!-- 17&#45;&gt;18 -->
<g id="edge32" class="edge"><title>17&#45;&gt;18</title>
<path fill="none" stroke="grey" stroke-width="2" d="M509.622,-215.697C509.622,-207.983 509.622,-198.712 509.622,-190.112"/>
<polygon fill="grey" stroke="grey" points="513.122,-190.104 509.622,-180.104 506.122,-190.104 513.122,-190.104"/>
</g>
<!-- 20 -->
<g id="node21" class="node"><title>20</title>
<path fill="none" stroke="#d8d356" stroke-width="2" d="M524.622,-108C524.622,-108 494.622,-108 494.622,-108 488.622,-108 482.622,-102 482.622,-96 482.622,-96 482.622,-84 482.622,-84 482.622,-78 488.622,-72 494.622,-72 494.622,-72 524.622,-72 524.622,-72 530.622,-72 536.622,-78 536.622,-84 536.622,-84 536.622,-96 536.622,-96 536.622,-102 530.622,-108 524.622,-108"/>
<text text-anchor="middle" x="509.622" y="-87.5" font-family="sans" font-size="10.00">gsea</text>
</g>
<!-- 18&#45;&gt;20 -->
<g id="edge34" class="edge"><title>18&#45;&gt;20</title>
<path fill="none" stroke="grey" stroke-width="2" d="M509.622,-143.697C509.622,-135.983 509.622,-126.712 509.622,-118.112"/>
<polygon fill="grey" stroke="grey" points="513.122,-118.104 509.622,-108.104 506.122,-118.104 513.122,-118.104"/>
</g>
<!-- 18&#45;&gt;21 -->
<g id="edge39" class="edge"><title>18&#45;&gt;21</title>
<path fill="none" stroke="grey" stroke-width="2" d="M494.906,-143.871C473.563,-119.031 433.884,-72.8464 409.222,-44.1415"/>
<polygon fill="grey" stroke="grey" points="411.561,-41.4934 402.39,-36.1893 406.252,-46.0552 411.561,-41.4934"/>
</g>
<!-- 19&#45;&gt;18 -->
<g id="edge31" class="edge"><title>19&#45;&gt;18</title>
<path fill="none" stroke="grey" stroke-width="2" d="M585.708,-503.773C611.044,-478.914 652.622,-430.302 652.622,-379 652.622,-379 652.622,-379 652.622,-305 652.622,-244.861 588.153,-201.464 545.79,-179.438"/>
<polygon fill="grey" stroke="grey" points="547.361,-176.311 536.855,-174.937 544.211,-182.562 547.361,-176.311"/>
</g>
<!-- 20&#45;&gt;21 -->
<g id="edge40" class="edge"><title>20&#45;&gt;21</title>
<path fill="none" stroke="grey" stroke-width="2" d="M482.546,-73.4647C466.016,-63.9804 444.613,-51.7 426.316,-41.2014"/>
<polygon fill="grey" stroke="grey" points="428.033,-38.1517 417.618,-36.2108 424.549,-44.2233 428.033,-38.1517"/>
</g>
</g>
</svg>
