<?xml version="1.0" encoding="UTF-8" standalone="no"?>
<!DOCTYPE svg PUBLIC "-//W3C//DTD SVG 1.1//EN"
 "http://www.w3.org/Graphics/SVG/1.1/DTD/svg11.dtd">
<!-- Generated by graphviz version 2.30.1 (20201013.1554)
 -->
<!-- Title: snakemake_dag Pages: 1 -->
<svg width="648pt" height="476pt"
 viewBox="0.00 0.00 647.50 476.00" xmlns="http://www.w3.org/2000/svg" xmlns:xlink="http://www.w3.org/1999/xlink">
<g id="graph0" class="graph" transform="scale(1 1) rotate(0) translate(4 472)">
<title>snakemake_dag</title>
<polygon fill="white" stroke="white" points="-4,5 -4,-472 644.504,-472 644.504,5 -4,5"/>
<!-- 0 -->
<g id="node1" class="node"><title>0</title>
<path fill="none" stroke="#59d856" stroke-width="2" d="M97,-36C97,-36 67,-36 67,-36 61,-36 55,-30 55,-24 55,-24 55,-12 55,-12 55,-6 61,-0 67,-0 67,-0 97,-0 97,-0 103,-0 109,-6 109,-12 109,-12 109,-24 109,-24 109,-30 103,-36 97,-36"/>
<text text-anchor="middle" x="82" y="-15.5" font-family="sans" font-size="10.00">all</text>
</g>
<!-- 1 -->
<g id="node2" class="node"><title>1</title>
<path fill="none" stroke="#56d863" stroke-width="2" d="M42,-108C42,-108 12,-108 12,-108 6,-108 0,-102 0,-96 0,-96 0,-84 0,-84 0,-78 6,-72 12,-72 12,-72 42,-72 42,-72 48,-72 54,-78 54,-84 54,-84 54,-96 54,-96 54,-102 48,-108 42,-108"/>
<text text-anchor="middle" x="27" y="-87.5" font-family="sans" font-size="10.00">gsea</text>
</g>
<!-- 1&#45;&gt;0 -->
<g id="edge3" class="edge"><title>1&#45;&gt;0</title>
<path fill="none" stroke="grey" stroke-width="2" d="M40.5955,-71.6966C47.1227,-63.3893 55.068,-53.2771 62.2466,-44.1407"/>
<polygon fill="grey" stroke="grey" points="65.1347,-46.1299 68.5609,-36.1043 59.6305,-41.8051 65.1347,-46.1299"/>
</g>
<!-- 2 -->
<g id="node3" class="node"><title>2</title>
<path fill="none" stroke="#b6d856" stroke-width="2" d="M42,-180C42,-180 12,-180 12,-180 6,-180 0,-174 0,-168 0,-168 0,-156 0,-156 0,-150 6,-144 12,-144 12,-144 42,-144 42,-144 48,-144 54,-150 54,-156 54,-156 54,-168 54,-168 54,-174 48,-180 42,-180"/>
<text text-anchor="middle" x="27" y="-159.5" font-family="sans" font-size="10.00">deseq</text>
</g>
<!-- 2&#45;&gt;0 -->
<g id="edge2" class="edge"><title>2&#45;&gt;0</title>
<path fill="none" stroke="grey" stroke-width="2" d="M41.1647,-143.851C48.6902,-133.93 57.4971,-120.89 63,-108 71.4132,-88.2932 76.2447,-64.4881 78.9283,-46.4579"/>
<polygon fill="grey" stroke="grey" points="82.4267,-46.7052 80.3028,-36.3255 75.4903,-45.7643 82.4267,-46.7052"/>
</g>
<!-- 2&#45;&gt;1 -->
<g id="edge4" class="edge"><title>2&#45;&gt;1</title>
<path fill="none" stroke="grey" stroke-width="2" d="M27,-143.697C27,-135.983 27,-126.712 27,-118.112"/>
<polygon fill="grey" stroke="grey" points="30.5001,-118.104 27,-108.104 23.5001,-118.104 30.5001,-118.104"/>
</g>
<!-- 3 -->
<g id="node4" class="node"><title>3</title>
<path fill="none" stroke="#78d856" stroke-width="2" d="M180.25,-252C180.25,-252 123.75,-252 123.75,-252 117.75,-252 111.75,-246 111.75,-240 111.75,-240 111.75,-228 111.75,-228 111.75,-222 117.75,-216 123.75,-216 123.75,-216 180.25,-216 180.25,-216 186.25,-216 192.25,-222 192.25,-228 192.25,-228 192.25,-240 192.25,-240 192.25,-246 186.25,-252 180.25,-252"/>
<text text-anchor="middle" x="152" y="-231.5" font-family="sans" font-size="10.00">count_matrix</text>
</g>
<!-- 3&#45;&gt;2 -->
<g id="edge5" class="edge"><title>3&#45;&gt;2</title>
<path fill="none" stroke="grey" stroke-width="2" d="M121.422,-215.876C103.781,-205.998 81.5035,-193.522 63.0178,-183.17"/>
<polygon fill="grey" stroke="grey" points="64.7198,-180.112 54.2846,-178.279 61.2995,-186.219 64.7198,-180.112"/>
</g>
<!-- 4 -->
<g id="node5" class="node"><title>4</title>
<path fill="none" stroke="#56c9d8" stroke-width="2" d="M421,-324C421,-324 391,-324 391,-324 385,-324 379,-318 379,-312 379,-312 379,-300 379,-300 379,-294 385,-288 391,-288 391,-288 421,-288 421,-288 427,-288 433,-294 433,-300 433,-300 433,-312 433,-312 433,-318 427,-324 421,-324"/>
<text text-anchor="middle" x="406" y="-303.5" font-family="sans" font-size="10.00">star</text>
</g>
<!-- 4&#45;&gt;3 -->
<g id="edge7" class="edge"><title>4&#45;&gt;3</title>
<path fill="none" stroke="grey" stroke-width="2" d="M378.818,-297.509C336.737,-285.912 255.16,-263.43 202.17,-248.827"/>
<polygon fill="grey" stroke="grey" points="202.87,-245.389 192.3,-246.106 201.01,-252.137 202.87,-245.389"/>
</g>
<!-- 11 -->
<g id="node12" class="node"><title>11</title>
<path fill="none" stroke="#d87556" stroke-width="2" d="M425,-108C425,-108 395,-108 395,-108 389,-108 383,-102 383,-96 383,-96 383,-84 383,-84 383,-78 389,-72 395,-72 395,-72 425,-72 425,-72 431,-72 437,-78 437,-84 437,-84 437,-96 437,-96 437,-102 431,-108 425,-108"/>
<text text-anchor="middle" x="410" y="-87.5" font-family="sans" font-size="10.00">multiqc</text>
</g>
<!-- 4&#45;&gt;11 -->
<g id="edge16" class="edge"><title>4&#45;&gt;11</title>
<path fill="none" stroke="grey" stroke-width="2" d="M433.044,-296.506C497.388,-274.908 650.352,-214.575 597,-144 578.952,-120.126 496.134,-103.891 446.969,-96.1706"/>
<polygon fill="grey" stroke="grey" points="447.438,-92.7017 437.024,-94.6528 446.382,-99.6215 447.438,-92.7017"/>
</g>
<!-- 13 -->
<g id="node14" class="node"><title>13</title>
<path fill="none" stroke="#a7d856" stroke-width="2" d="M423.25,-252C423.25,-252 388.75,-252 388.75,-252 382.75,-252 376.75,-246 376.75,-240 376.75,-240 376.75,-228 376.75,-228 376.75,-222 382.75,-216 388.75,-216 388.75,-216 423.25,-216 423.25,-216 429.25,-216 435.25,-222 435.25,-228 435.25,-228 435.25,-240 435.25,-240 435.25,-246 429.25,-252 423.25,-252"/>
<text text-anchor="middle" x="406" y="-231.5" font-family="sans" font-size="10.00">star_link</text>
</g>
<!-- 4&#45;&gt;13 -->
<g id="edge22" class="edge"><title>4&#45;&gt;13</title>
<path fill="none" stroke="grey" stroke-width="2" d="M406,-287.697C406,-279.983 406,-270.712 406,-262.112"/>
<polygon fill="grey" stroke="grey" points="409.5,-262.104 406,-252.104 402.5,-262.104 409.5,-262.104"/>
</g>
<!-- 5 -->
<g id="node6" class="node"><title>5</title>
<path fill="none" stroke="#c6d856" stroke-width="2" d="M607,-396C607,-396 577,-396 577,-396 571,-396 565,-390 565,-384 565,-384 565,-372 565,-372 565,-366 571,-360 577,-360 577,-360 607,-360 607,-360 613,-360 619,-366 619,-372 619,-372 619,-384 619,-384 619,-390 613,-396 607,-396"/>
<text text-anchor="middle" x="592" y="-375.5" font-family="sans" font-size="10.00">fastp</text>
</g>
<!-- 5&#45;&gt;4 -->
<g id="edge8" class="edge"><title>5&#45;&gt;4</title>
<path fill="none" stroke="grey" stroke-width="2" d="M564.954,-366.821C532.72,-354.69 478.708,-334.363 442.718,-320.819"/>
<polygon fill="grey" stroke="grey" points="443.671,-317.438 433.079,-317.191 441.205,-323.989 443.671,-317.438"/>
</g>
<!-- 5&#45;&gt;11 -->
<g id="edge15" class="edge"><title>5&#45;&gt;11</title>
<path fill="none" stroke="grey" stroke-width="2" d="M601.012,-359.873C621.631,-318.058 666.704,-209.401 616,-144 595.53,-117.597 501.089,-102.04 447.466,-95.1878"/>
<polygon fill="grey" stroke="grey" points="447.674,-91.6869 437.32,-93.9326 446.815,-98.6339 447.674,-91.6869"/>
</g>
<!-- 6 -->
<g id="node7" class="node"><title>6</title>
<path fill="none" stroke="#56d8c9" stroke-width="2" d="M624.25,-468C624.25,-468 559.75,-468 559.75,-468 553.75,-468 547.75,-462 547.75,-456 547.75,-456 547.75,-444 547.75,-444 547.75,-438 553.75,-432 559.75,-432 559.75,-432 624.25,-432 624.25,-432 630.25,-432 636.25,-438 636.25,-444 636.25,-444 636.25,-456 636.25,-456 636.25,-462 630.25,-468 624.25,-468"/>
<text text-anchor="middle" x="592" y="-447.5" font-family="sans" font-size="10.00">fastq_combine</text>
</g>
<!-- 6&#45;&gt;5 -->
<g id="edge11" class="edge"><title>6&#45;&gt;5</title>
<path fill="none" stroke="grey" stroke-width="2" d="M592,-431.697C592,-423.983 592,-414.712 592,-406.112"/>
<polygon fill="grey" stroke="grey" points="595.5,-406.104 592,-396.104 588.5,-406.104 595.5,-406.104"/>
</g>
<!-- 7 -->
<g id="node8" class="node"><title>7</title>
<path fill="none" stroke="#d6d856" stroke-width="2" d="M450.25,-396C450.25,-396 361.75,-396 361.75,-396 355.75,-396 349.75,-390 349.75,-384 349.75,-384 349.75,-372 349.75,-372 349.75,-366 355.75,-360 361.75,-360 361.75,-360 450.25,-360 450.25,-360 456.25,-360 462.25,-366 462.25,-372 462.25,-372 462.25,-384 462.25,-384 462.25,-390 456.25,-396 450.25,-396"/>
<text text-anchor="middle" x="406" y="-375.5" font-family="sans" font-size="10.00">star_index_genome</text>
</g>
<!-- 7&#45;&gt;4 -->
<g id="edge10" class="edge"><title>7&#45;&gt;4</title>
<path fill="none" stroke="grey" stroke-width="2" d="M406,-359.697C406,-351.983 406,-342.712 406,-334.112"/>
<polygon fill="grey" stroke="grey" points="409.5,-334.104 406,-324.104 402.5,-334.104 409.5,-334.104"/>
</g>
<!-- 8 -->
<g id="node9" class="node"><title>8</title>
<path fill="none" stroke="#d88556" stroke-width="2" d="M455.25,-468C455.25,-468 370.75,-468 370.75,-468 364.75,-468 358.75,-462 358.75,-456 358.75,-456 358.75,-444 358.75,-444 358.75,-438 364.75,-432 370.75,-432 370.75,-432 455.25,-432 455.25,-432 461.25,-432 467.25,-438 467.25,-444 467.25,-444 467.25,-456 467.25,-456 467.25,-462 461.25,-468 455.25,-468"/>
<text text-anchor="middle" x="413" y="-447.5" font-family="sans" font-size="10.00">download_genome</text>
</g>
<!-- 8&#45;&gt;7 -->
<g id="edge13" class="edge"><title>8&#45;&gt;7</title>
<path fill="none" stroke="grey" stroke-width="2" d="M411.27,-431.697C410.498,-423.983 409.571,-414.712 408.711,-406.112"/>
<polygon fill="grey" stroke="grey" points="412.188,-405.706 407.71,-396.104 405.223,-406.403 412.188,-405.706"/>
</g>
<!-- 9 -->
<g id="node10" class="node"><title>9</title>
<path fill="none" stroke="#d8a456" stroke-width="2" d="M328,-468C328,-468 230,-468 230,-468 224,-468 218,-462 218,-456 218,-456 218,-444 218,-444 218,-438 224,-432 230,-432 230,-432 328,-432 328,-432 334,-432 340,-438 340,-444 340,-444 340,-456 340,-456 340,-462 334,-468 328,-468"/>
<text text-anchor="middle" x="279" y="-447.5" font-family="sans" font-size="10.00">download_annotation</text>
</g>
<!-- 9&#45;&gt;4 -->
<g id="edge9" class="edge"><title>9&#45;&gt;4</title>
<path fill="none" stroke="grey" stroke-width="2" d="M288.678,-431.85C299.721,-413.087 318.988,-382.667 340,-360 349.872,-349.351 361.956,-339.026 373.074,-330.362"/>
<polygon fill="grey" stroke="grey" points="375.492,-332.921 381.335,-324.083 371.255,-327.348 375.492,-332.921"/>
</g>
<!-- 9&#45;&gt;7 -->
<g id="edge12" class="edge"><title>9&#45;&gt;7</title>
<path fill="none" stroke="grey" stroke-width="2" d="M310.068,-431.876C326.827,-422.639 347.706,-411.131 365.702,-401.212"/>
<polygon fill="grey" stroke="grey" points="367.745,-404.082 374.813,-396.19 364.366,-397.952 367.745,-404.082"/>
</g>
<!-- 10 -->
<g id="node11" class="node"><title>10</title>
<path fill="none" stroke="#56d8a9" stroke-width="2" d="M161.25,-324C161.25,-324 86.75,-324 86.75,-324 80.75,-324 74.75,-318 74.75,-312 74.75,-312 74.75,-300 74.75,-300 74.75,-294 80.75,-288 86.75,-288 86.75,-288 161.25,-288 161.25,-288 167.25,-288 173.25,-294 173.25,-300 173.25,-300 173.25,-312 173.25,-312 173.25,-318 167.25,-324 161.25,-324"/>
<text text-anchor="middle" x="124" y="-303.5" font-family="sans" font-size="10.00">make_genes_file</text>
</g>
<!-- 9&#45;&gt;10 -->
<g id="edge14" class="edge"><title>9&#45;&gt;10</title>
<path fill="none" stroke="grey" stroke-width="2" d="M260.303,-431.871C232.839,-406.711 181.474,-359.654 150.243,-331.042"/>
<polygon fill="grey" stroke="grey" points="152.501,-328.364 142.763,-324.189 147.772,-333.525 152.501,-328.364"/>
</g>
<!-- 15 -->
<g id="node16" class="node"><title>15</title>
<path fill="none" stroke="#5663d8" stroke-width="2" d="M316.25,-252C316.25,-252 241.75,-252 241.75,-252 235.75,-252 229.75,-246 229.75,-240 229.75,-240 229.75,-228 229.75,-228 229.75,-222 235.75,-216 241.75,-216 241.75,-216 316.25,-216 316.25,-216 322.25,-216 328.25,-222 328.25,-228 328.25,-228 328.25,-240 328.25,-240 328.25,-246 322.25,-252 316.25,-252"/>
<text text-anchor="middle" x="279" y="-231.5" font-family="sans" font-size="10.00">rseqc_make_bed</text>
</g>
<!-- 9&#45;&gt;15 -->
<g id="edge25" class="edge"><title>9&#45;&gt;15</title>
<path fill="none" stroke="grey" stroke-width="2" d="M279,-431.849C279,-394.832 279,-307.181 279,-262.386"/>
<polygon fill="grey" stroke="grey" points="282.5,-262.232 279,-252.232 275.5,-262.232 282.5,-262.232"/>
</g>
<!-- 10&#45;&gt;2 -->
<g id="edge6" class="edge"><title>10&#45;&gt;2</title>
<path fill="none" stroke="grey" stroke-width="2" d="M112.3,-287.871C95.4036,-263.137 64.0529,-217.242 44.4273,-188.512"/>
<polygon fill="grey" stroke="grey" points="47.2727,-186.472 38.742,-180.189 41.4925,-190.421 47.2727,-186.472"/>
</g>
<!-- 11&#45;&gt;0 -->
<g id="edge1" class="edge"><title>11&#45;&gt;0</title>
<path fill="none" stroke="grey" stroke-width="2" d="M382.879,-83.2121C324.311,-70.7128 185.92,-41.178 119.219,-26.943"/>
<polygon fill="grey" stroke="grey" points="119.663,-23.459 109.152,-24.7947 118.202,-30.3049 119.663,-23.459"/>
</g>
<!-- 12 -->
<g id="node13" class="node"><title>12</title>
<path fill="none" stroke="#56d87b" stroke-width="2" d="M576.25,-180C576.25,-180 505.75,-180 505.75,-180 499.75,-180 493.75,-174 493.75,-168 493.75,-168 493.75,-156 493.75,-156 493.75,-150 499.75,-144 505.75,-144 505.75,-144 576.25,-144 576.25,-144 582.25,-144 588.25,-150 588.25,-156 588.25,-156 588.25,-168 588.25,-168 588.25,-174 582.25,-180 576.25,-180"/>
<text text-anchor="middle" x="541" y="-159.5" font-family="sans" font-size="10.00">star_index_bam</text>
</g>
<!-- 12&#45;&gt;11 -->
<g id="edge17" class="edge"><title>12&#45;&gt;11</title>
<path fill="none" stroke="grey" stroke-width="2" d="M508.954,-143.876C489.99,-133.743 465.913,-120.877 446.257,-110.374"/>
<polygon fill="grey" stroke="grey" points="447.758,-107.208 437.289,-105.582 444.459,-113.382 447.758,-107.208"/>
</g>
<!-- 13&#45;&gt;12 -->
<g id="edge21" class="edge"><title>13&#45;&gt;12</title>
<path fill="none" stroke="grey" stroke-width="2" d="M435.293,-217.811C453.937,-208.144 478.38,-195.47 499.065,-184.744"/>
<polygon fill="grey" stroke="grey" points="500.703,-187.837 507.97,-180.127 497.481,-181.623 500.703,-187.837"/>
</g>
<!-- 14 -->
<g id="node15" class="node"><title>14</title>
<path fill="none" stroke="#d8cb56" stroke-width="2" d="M202,-180C202,-180 84,-180 84,-180 78,-180 72,-174 72,-168 72,-168 72,-156 72,-156 72,-150 78,-144 84,-144 84,-144 202,-144 202,-144 208,-144 214,-150 214,-156 214,-156 214,-168 214,-168 214,-174 208,-180 202,-180"/>
<text text-anchor="middle" x="143" y="-159.5" font-family="sans" font-size="10.00">rseqc_junction_saturation</text>
</g>
<!-- 13&#45;&gt;14 -->
<g id="edge23" class="edge"><title>13&#45;&gt;14</title>
<path fill="none" stroke="grey" stroke-width="2" d="M376.596,-225.174C338.172,-214.947 269.55,-196.682 216.588,-182.586"/>
<polygon fill="grey" stroke="grey" points="217.456,-179.195 206.892,-180.006 215.655,-185.96 217.456,-179.195"/>
</g>
<!-- 16 -->
<g id="node17" class="node"><title>16</title>
<path fill="none" stroke="#97d856" stroke-width="2" d="M314,-180C314,-180 244,-180 244,-180 238,-180 232,-174 232,-168 232,-168 232,-156 232,-156 232,-150 238,-144 244,-144 244,-144 314,-144 314,-144 320,-144 326,-150 326,-156 326,-156 326,-168 326,-168 326,-174 320,-180 314,-180"/>
<text text-anchor="middle" x="279" y="-159.5" font-family="sans" font-size="10.00">rseqc_bam_stat</text>
</g>
<!-- 13&#45;&gt;16 -->
<g id="edge26" class="edge"><title>13&#45;&gt;16</title>
<path fill="none" stroke="grey" stroke-width="2" d="M376.544,-216.765C359.416,-207.324 337.596,-195.297 318.939,-185.013"/>
<polygon fill="grey" stroke="grey" points="320.515,-181.886 310.068,-180.124 317.136,-188.016 320.515,-181.886"/>
</g>
<!-- 17 -->
<g id="node18" class="node"><title>17</title>
<path fill="none" stroke="#d89556" stroke-width="2" d="M463.25,-180C463.25,-180 356.75,-180 356.75,-180 350.75,-180 344.75,-174 344.75,-168 344.75,-168 344.75,-156 344.75,-156 344.75,-150 350.75,-144 356.75,-144 356.75,-144 463.25,-144 463.25,-144 469.25,-144 475.25,-150 475.25,-156 475.25,-156 475.25,-168 475.25,-168 475.25,-174 469.25,-180 463.25,-180"/>
<text text-anchor="middle" x="410" y="-159.5" font-family="sans" font-size="10.00">rseqc_read_distribution</text>
</g>
<!-- 13&#45;&gt;17 -->
<g id="edge28" class="edge"><title>13&#45;&gt;17</title>
<path fill="none" stroke="grey" stroke-width="2" d="M406.989,-215.697C407.43,-207.983 407.959,-198.712 408.451,-190.112"/>
<polygon fill="grey" stroke="grey" points="411.946,-190.288 409.023,-180.104 404.958,-189.888 411.946,-190.288"/>
</g>
<!-- 14&#45;&gt;11 -->
<g id="edge20" class="edge"><title>14&#45;&gt;11</title>
<path fill="none" stroke="grey" stroke-width="2" d="M207.974,-143.966C259.739,-130.394 330.363,-111.879 372.934,-100.718"/>
<polygon fill="grey" stroke="grey" points="374.08,-104.035 382.866,-98.1138 372.305,-97.2643 374.08,-104.035"/>
</g>
<!-- 15&#45;&gt;14 -->
<g id="edge24" class="edge"><title>15&#45;&gt;14</title>
<path fill="none" stroke="grey" stroke-width="2" d="M245.731,-215.876C227.537,-206.512 204.809,-194.814 185.36,-184.803"/>
<polygon fill="grey" stroke="grey" points="186.89,-181.654 176.397,-180.19 183.687,-187.878 186.89,-181.654"/>
</g>
<!-- 15&#45;&gt;16 -->
<g id="edge27" class="edge"><title>15&#45;&gt;16</title>
<path fill="none" stroke="grey" stroke-width="2" d="M279,-215.697C279,-207.983 279,-198.712 279,-190.112"/>
<polygon fill="grey" stroke="grey" points="282.5,-190.104 279,-180.104 275.5,-190.104 282.5,-190.104"/>
</g>
<!-- 15&#45;&gt;17 -->
<g id="edge29" class="edge"><title>15&#45;&gt;17</title>
<path fill="none" stroke="grey" stroke-width="2" d="M311.046,-215.876C328.492,-206.554 350.265,-194.919 368.943,-184.939"/>
<polygon fill="grey" stroke="grey" points="370.66,-187.99 377.831,-180.19 367.361,-181.816 370.66,-187.99"/>
</g>
<!-- 16&#45;&gt;11 -->
<g id="edge18" class="edge"><title>16&#45;&gt;11</title>
<path fill="none" stroke="grey" stroke-width="2" d="M311.046,-143.876C330.01,-133.743 354.087,-120.877 373.743,-110.374"/>
<polygon fill="grey" stroke="grey" points="375.541,-113.382 382.711,-105.582 372.242,-107.208 375.541,-113.382"/>
</g>
<!-- 17&#45;&gt;11 -->
<g id="edge19" class="edge"><title>17&#45;&gt;11</title>
<path fill="none" stroke="grey" stroke-width="2" d="M410,-143.697C410,-135.983 410,-126.712 410,-118.112"/>
<polygon fill="grey" stroke="grey" points="413.5,-118.104 410,-108.104 406.5,-118.104 413.5,-118.104"/>
</g>
</g>
</svg>
