<?xml version="1.0" encoding="UTF-8" standalone="no"?>
<!DOCTYPE svg PUBLIC "-//W3C//DTD SVG 1.1//EN"
 "http://www.w3.org/Graphics/SVG/1.1/DTD/svg11.dtd">
<!-- Generated by graphviz version 4.0.0 (0)
 -->
<!-- Title: snakemake_dag Pages: 1 -->
<svg width="727pt" height="548pt"
 viewBox="0.00 0.00 727.25 548.00" xmlns="http://www.w3.org/2000/svg" xmlns:xlink="http://www.w3.org/1999/xlink">
<g id="graph0" class="graph" transform="scale(1 1) rotate(0) translate(4 544)">
<title>snakemake_dag</title>
<polygon fill="white" stroke="transparent" points="-4,4 -4,-544 723.25,-544 723.25,4 -4,4"/>
<!-- 0 -->
<g id="node1" class="node">
<title>0</title>
<path fill="none" stroke="#56b1d8" stroke-width="2" d="M128,-36C128,-36 98,-36 98,-36 92,-36 86,-30 86,-24 86,-24 86,-12 86,-12 86,-6 92,0 98,0 98,0 128,0 128,0 134,0 140,-6 140,-12 140,-12 140,-24 140,-24 140,-30 134,-36 128,-36"/>
<text text-anchor="middle" x="113" y="-15.5" font-family="sans" font-size="10.00">all</text>
</g>
<!-- 1 -->
<g id="node2" class="node">
<title>1</title>
<path fill="none" stroke="#d89556" stroke-width="2" d="M42,-108C42,-108 12,-108 12,-108 6,-108 0,-102 0,-96 0,-96 0,-84 0,-84 0,-78 6,-72 12,-72 12,-72 42,-72 42,-72 48,-72 54,-78 54,-84 54,-84 54,-96 54,-96 54,-102 48,-108 42,-108"/>
<text text-anchor="middle" x="27" y="-87.5" font-family="sans" font-size="10.00">gsea</text>
</g>
<!-- 1&#45;&gt;0 -->
<g id="edge2" class="edge">
<title>1&#45;&gt;0</title>
<path fill="none" stroke="grey" stroke-width="2" d="M48.26,-71.7C59.09,-62.88 72.42,-52.03 84.16,-42.47"/>
<polygon fill="grey" stroke="grey" stroke-width="2" points="86.44,-45.13 91.99,-36.1 82.02,-39.7 86.44,-45.13"/>
</g>
<!-- 2 -->
<g id="node3" class="node">
<title>2</title>
<path fill="none" stroke="#56d8c1" stroke-width="2" d="M82,-180C82,-180 14,-180 14,-180 8,-180 2,-174 2,-168 2,-168 2,-156 2,-156 2,-150 8,-144 14,-144 14,-144 82,-144 82,-144 88,-144 94,-150 94,-156 94,-156 94,-168 94,-168 94,-174 88,-180 82,-180"/>
<text text-anchor="middle" x="48" y="-159.5" font-family="sans" font-size="10.00">deseq_analysis</text>
</g>
<!-- 2&#45;&gt;0 -->
<g id="edge1" class="edge">
<title>2&#45;&gt;0</title>
<path fill="none" stroke="grey" stroke-width="2" d="M55.84,-143.87C67.02,-119.46 87.63,-74.43 100.81,-45.64"/>
<polygon fill="grey" stroke="grey" stroke-width="2" points="104.15,-46.74 105.13,-36.19 97.79,-43.83 104.15,-46.74"/>
</g>
<!-- 2&#45;&gt;1 -->
<g id="edge5" class="edge">
<title>2&#45;&gt;1</title>
<path fill="none" stroke="grey" stroke-width="2" d="M42.81,-143.7C40.47,-135.9 37.65,-126.51 35.05,-117.83"/>
<polygon fill="grey" stroke="grey" stroke-width="2" points="38.36,-116.68 32.13,-108.1 31.65,-118.69 38.36,-116.68"/>
</g>
<!-- 3 -->
<g id="node4" class="node">
<title>3</title>
<path fill="none" stroke="#ced856" stroke-width="2" d="M104,-252C104,-252 60,-252 60,-252 54,-252 48,-246 48,-240 48,-240 48,-228 48,-228 48,-222 54,-216 60,-216 60,-216 104,-216 104,-216 110,-216 116,-222 116,-228 116,-228 116,-240 116,-240 116,-246 110,-252 104,-252"/>
<text text-anchor="middle" x="82" y="-231.5" font-family="sans" font-size="10.00">deseq_dds</text>
</g>
<!-- 3&#45;&gt;2 -->
<g id="edge7" class="edge">
<title>3&#45;&gt;2</title>
<path fill="none" stroke="grey" stroke-width="2" d="M73.6,-215.7C69.73,-207.73 65.05,-198.1 60.76,-189.26"/>
<polygon fill="grey" stroke="grey" stroke-width="2" points="63.83,-187.57 56.31,-180.1 57.53,-190.63 63.83,-187.57"/>
</g>
<!-- 12 -->
<g id="node13" class="node">
<title>12</title>
<path fill="none" stroke="#d87556" stroke-width="2" d="M166,-108C166,-108 122,-108 122,-108 116,-108 110,-102 110,-96 110,-96 110,-84 110,-84 110,-78 116,-72 122,-72 122,-72 166,-72 166,-72 172,-72 178,-78 178,-84 178,-84 178,-96 178,-96 178,-102 172,-108 166,-108"/>
<text text-anchor="middle" x="144" y="-87.5" font-family="sans" font-size="10.00">deseq_pca</text>
</g>
<!-- 3&#45;&gt;12 -->
<g id="edge17" class="edge">
<title>3&#45;&gt;12</title>
<path fill="none" stroke="grey" stroke-width="2" d="M89.48,-215.87C100.14,-191.46 119.8,-146.43 132.37,-117.64"/>
<polygon fill="grey" stroke="grey" stroke-width="2" points="135.7,-118.75 136.49,-108.19 129.29,-115.95 135.7,-118.75"/>
</g>
<!-- 4 -->
<g id="node5" class="node">
<title>4</title>
<path fill="none" stroke="#88d856" stroke-width="2" d="M110.5,-324C110.5,-324 53.5,-324 53.5,-324 47.5,-324 41.5,-318 41.5,-312 41.5,-312 41.5,-300 41.5,-300 41.5,-294 47.5,-288 53.5,-288 53.5,-288 110.5,-288 110.5,-288 116.5,-288 122.5,-294 122.5,-300 122.5,-300 122.5,-312 122.5,-312 122.5,-318 116.5,-324 110.5,-324"/>
<text text-anchor="middle" x="82" y="-303.5" font-family="sans" font-size="10.00">count_matrix</text>
</g>
<!-- 4&#45;&gt;3 -->
<g id="edge8" class="edge">
<title>4&#45;&gt;3</title>
<path fill="none" stroke="grey" stroke-width="2" d="M82,-287.7C82,-279.98 82,-270.71 82,-262.11"/>
<polygon fill="grey" stroke="grey" stroke-width="2" points="85.5,-262.1 82,-252.1 78.5,-262.1 85.5,-262.1"/>
</g>
<!-- 5 -->
<g id="node6" class="node">
<title>5</title>
<path fill="none" stroke="#56d863" stroke-width="2" d="M215,-396C215,-396 185,-396 185,-396 179,-396 173,-390 173,-384 173,-384 173,-372 173,-372 173,-366 179,-360 185,-360 185,-360 215,-360 215,-360 221,-360 227,-366 227,-372 227,-372 227,-384 227,-384 227,-390 221,-396 215,-396"/>
<text text-anchor="middle" x="200" y="-375.5" font-family="sans" font-size="10.00">star</text>
</g>
<!-- 5&#45;&gt;4 -->
<g id="edge9" class="edge">
<title>5&#45;&gt;4</title>
<path fill="none" stroke="grey" stroke-width="2" d="M172.93,-360.94C157.17,-351.59 137.06,-339.66 119.76,-329.4"/>
<polygon fill="grey" stroke="grey" stroke-width="2" points="121.39,-326.3 111.01,-324.21 117.82,-332.32 121.39,-326.3"/>
</g>
<!-- 13 -->
<g id="node14" class="node">
<title>13</title>
<path fill="none" stroke="#56d0d8" stroke-width="2" d="M375,-180C375,-180 345,-180 345,-180 339,-180 333,-174 333,-168 333,-168 333,-156 333,-156 333,-150 339,-144 345,-144 345,-144 375,-144 375,-144 381,-144 387,-150 387,-156 387,-156 387,-168 387,-168 387,-174 381,-180 375,-180"/>
<text text-anchor="middle" x="360" y="-159.5" font-family="sans" font-size="10.00">multiqc</text>
</g>
<!-- 5&#45;&gt;13 -->
<g id="edge22" class="edge">
<title>5&#45;&gt;13</title>
<path fill="none" stroke="grey" stroke-width="2" d="M188.46,-359.76C168.77,-327.99 133.87,-259.45 167,-216 185.82,-191.31 272.4,-175.27 322.98,-167.83"/>
<polygon fill="grey" stroke="grey" stroke-width="2" points="323.48,-171.29 332.88,-166.41 322.49,-164.36 323.48,-171.29"/>
</g>
<!-- 15 -->
<g id="node16" class="node">
<title>15</title>
<path fill="none" stroke="#56d8a2" stroke-width="2" d="M377.5,-324C377.5,-324 342.5,-324 342.5,-324 336.5,-324 330.5,-318 330.5,-312 330.5,-312 330.5,-300 330.5,-300 330.5,-294 336.5,-288 342.5,-288 342.5,-288 377.5,-288 377.5,-288 383.5,-288 389.5,-294 389.5,-300 389.5,-300 389.5,-312 389.5,-312 389.5,-318 383.5,-324 377.5,-324"/>
<text text-anchor="middle" x="360" y="-303.5" font-family="sans" font-size="10.00">star_link</text>
</g>
<!-- 5&#45;&gt;15 -->
<g id="edge25" class="edge">
<title>5&#45;&gt;15</title>
<path fill="none" stroke="grey" stroke-width="2" d="M227.14,-365.13C252.85,-353.88 291.75,-336.86 320.83,-324.14"/>
<polygon fill="grey" stroke="grey" stroke-width="2" points="322.52,-327.22 330.28,-320 319.71,-320.81 322.52,-327.22"/>
</g>
<!-- 6 -->
<g id="node7" class="node">
<title>6</title>
<path fill="none" stroke="#d8d356" stroke-width="2" d="M582,-468C582,-468 552,-468 552,-468 546,-468 540,-462 540,-456 540,-456 540,-444 540,-444 540,-438 546,-432 552,-432 552,-432 582,-432 582,-432 588,-432 594,-438 594,-444 594,-444 594,-456 594,-456 594,-462 588,-468 582,-468"/>
<text text-anchor="middle" x="567" y="-447.5" font-family="sans" font-size="10.00">fastp</text>
</g>
<!-- 6&#45;&gt;5 -->
<g id="edge12" class="edge">
<title>6&#45;&gt;5</title>
<path fill="none" stroke="grey" stroke-width="2" d="M539.72,-443.8C474.96,-431.44 311.88,-400.34 237.74,-386.2"/>
<polygon fill="grey" stroke="grey" stroke-width="2" points="237.94,-382.67 227.46,-384.24 236.63,-389.55 237.94,-382.67"/>
</g>
<!-- 6&#45;&gt;13 -->
<g id="edge19" class="edge">
<title>6&#45;&gt;13</title>
<path fill="none" stroke="grey" stroke-width="2" d="M590.69,-431.84C643.87,-391.32 763.45,-287.71 702,-216 663.04,-170.54 477.46,-163.74 397.16,-162.96"/>
<polygon fill="grey" stroke="grey" stroke-width="2" points="397.03,-159.46 387.01,-162.89 396.98,-166.46 397.03,-159.46"/>
</g>
<!-- 7 -->
<g id="node8" class="node">
<title>7</title>
<path fill="none" stroke="#d8a456" stroke-width="2" d="M599.5,-540C599.5,-540 534.5,-540 534.5,-540 528.5,-540 522.5,-534 522.5,-528 522.5,-528 522.5,-516 522.5,-516 522.5,-510 528.5,-504 534.5,-504 534.5,-504 599.5,-504 599.5,-504 605.5,-504 611.5,-510 611.5,-516 611.5,-516 611.5,-528 611.5,-528 611.5,-534 605.5,-540 599.5,-540"/>
<text text-anchor="middle" x="567" y="-519.5" font-family="sans" font-size="10.00">fastq_combine</text>
</g>
<!-- 7&#45;&gt;6 -->
<g id="edge13" class="edge">
<title>7&#45;&gt;6</title>
<path fill="none" stroke="grey" stroke-width="2" d="M567,-503.7C567,-495.98 567,-486.71 567,-478.11"/>
<polygon fill="grey" stroke="grey" stroke-width="2" points="570.5,-478.1 567,-468.1 563.5,-478.1 570.5,-478.1"/>
</g>
<!-- 8 -->
<g id="node9" class="node">
<title>8</title>
<path fill="none" stroke="#78d856" stroke-width="2" d="M229.5,-468C229.5,-468 140.5,-468 140.5,-468 134.5,-468 128.5,-462 128.5,-456 128.5,-456 128.5,-444 128.5,-444 128.5,-438 134.5,-432 140.5,-432 140.5,-432 229.5,-432 229.5,-432 235.5,-432 241.5,-438 241.5,-444 241.5,-444 241.5,-456 241.5,-456 241.5,-462 235.5,-468 229.5,-468"/>
<text text-anchor="middle" x="185" y="-447.5" font-family="sans" font-size="10.00">star_index_genome</text>
</g>
<!-- 8&#45;&gt;5 -->
<g id="edge10" class="edge">
<title>8&#45;&gt;5</title>
<path fill="none" stroke="grey" stroke-width="2" d="M188.71,-431.7C190.36,-423.98 192.35,-414.71 194.19,-406.11"/>
<polygon fill="grey" stroke="grey" stroke-width="2" points="197.66,-406.62 196.33,-396.1 190.82,-405.15 197.66,-406.62"/>
</g>
<!-- 9 -->
<g id="node10" class="node">
<title>9</title>
<path fill="none" stroke="#d86656" stroke-width="2" d="M178.5,-540C178.5,-540 93.5,-540 93.5,-540 87.5,-540 81.5,-534 81.5,-528 81.5,-528 81.5,-516 81.5,-516 81.5,-510 87.5,-504 93.5,-504 93.5,-504 178.5,-504 178.5,-504 184.5,-504 190.5,-510 190.5,-516 190.5,-516 190.5,-528 190.5,-528 190.5,-534 184.5,-540 178.5,-540"/>
<text text-anchor="middle" x="136" y="-519.5" font-family="sans" font-size="10.00">download_genome</text>
</g>
<!-- 9&#45;&gt;8 -->
<g id="edge15" class="edge">
<title>9&#45;&gt;8</title>
<path fill="none" stroke="grey" stroke-width="2" d="M148.11,-503.7C153.87,-495.47 160.86,-485.48 167.21,-476.42"/>
<polygon fill="grey" stroke="grey" stroke-width="2" points="170.16,-478.3 173.03,-468.1 164.42,-474.29 170.16,-478.3"/>
</g>
<!-- 10 -->
<g id="node11" class="node">
<title>10</title>
<path fill="none" stroke="#56a2d8" stroke-width="2" d="M319,-540C319,-540 221,-540 221,-540 215,-540 209,-534 209,-528 209,-528 209,-516 209,-516 209,-510 215,-504 221,-504 221,-504 319,-504 319,-504 325,-504 331,-510 331,-516 331,-516 331,-528 331,-528 331,-534 325,-540 319,-540"/>
<text text-anchor="middle" x="270" y="-519.5" font-family="sans" font-size="10.00">download_annotation</text>
</g>
<!-- 10&#45;&gt;5 -->
<g id="edge11" class="edge">
<title>10&#45;&gt;5</title>
<path fill="none" stroke="grey" stroke-width="2" d="M269.14,-503.99C267.59,-485.34 263.23,-455.02 251,-432 245.35,-421.36 236.93,-411.36 228.56,-402.98"/>
<polygon fill="grey" stroke="grey" stroke-width="2" points="230.94,-400.41 221.28,-396.05 226.12,-405.48 230.94,-400.41"/>
</g>
<!-- 10&#45;&gt;8 -->
<g id="edge14" class="edge">
<title>10&#45;&gt;8</title>
<path fill="none" stroke="grey" stroke-width="2" d="M248.99,-503.7C238.28,-494.88 225.11,-484.03 213.5,-474.47"/>
<polygon fill="grey" stroke="grey" stroke-width="2" points="215.71,-471.76 205.77,-468.1 211.26,-477.16 215.71,-471.76"/>
</g>
<!-- 11 -->
<g id="node12" class="node">
<title>11</title>
<path fill="none" stroke="#97d856" stroke-width="2" d="M121,-396C121,-396 47,-396 47,-396 41,-396 35,-390 35,-384 35,-384 35,-372 35,-372 35,-366 41,-360 47,-360 47,-360 121,-360 121,-360 127,-360 133,-366 133,-372 133,-372 133,-384 133,-384 133,-390 127,-396 121,-396"/>
<text text-anchor="middle" x="84" y="-375.5" font-family="sans" font-size="10.00">make_genes_file</text>
</g>
<!-- 10&#45;&gt;11 -->
<g id="edge16" class="edge">
<title>10&#45;&gt;11</title>
<path fill="none" stroke="grey" stroke-width="2" d="M208.98,-504.96C173.54,-494.61 133.32,-480.74 120,-468 102.74,-451.5 93.53,-425.6 88.76,-405.98"/>
<polygon fill="grey" stroke="grey" stroke-width="2" points="92.15,-405.13 86.59,-396.11 85.31,-406.62 92.15,-405.13"/>
</g>
<!-- 17 -->
<g id="node18" class="node">
<title>17</title>
<path fill="none" stroke="#d85656" stroke-width="2" d="M513,-324C513,-324 439,-324 439,-324 433,-324 427,-318 427,-312 427,-312 427,-300 427,-300 427,-294 433,-288 439,-288 439,-288 513,-288 513,-288 519,-288 525,-294 525,-300 525,-300 525,-312 525,-312 525,-318 519,-324 513,-324"/>
<text text-anchor="middle" x="476" y="-303.5" font-family="sans" font-size="10.00">rseqc_make_bed</text>
</g>
<!-- 10&#45;&gt;17 -->
<g id="edge28" class="edge">
<title>10&#45;&gt;17</title>
<path fill="none" stroke="grey" stroke-width="2" d="M286.51,-503.85C322.9,-466.05 410.11,-375.45 452.32,-331.6"/>
<polygon fill="grey" stroke="grey" stroke-width="2" points="455,-333.86 459.41,-324.23 449.96,-329.01 455,-333.86"/>
</g>
<!-- 11&#45;&gt;2 -->
<g id="edge6" class="edge">
<title>11&#45;&gt;2</title>
<path fill="none" stroke="grey" stroke-width="2" d="M60.7,-359.82C50.1,-350.54 38.68,-338.09 33,-324 15.1,-279.59 27.71,-222.9 38.12,-190"/>
<polygon fill="grey" stroke="grey" stroke-width="2" points="41.54,-190.79 41.38,-180.2 34.9,-188.58 41.54,-190.79"/>
</g>
<!-- 12&#45;&gt;0 -->
<g id="edge4" class="edge">
<title>12&#45;&gt;0</title>
<path fill="none" stroke="grey" stroke-width="2" d="M136.34,-71.7C132.81,-63.73 128.54,-54.1 124.63,-45.26"/>
<polygon fill="grey" stroke="grey" stroke-width="2" points="127.82,-43.83 120.57,-36.1 121.42,-46.67 127.82,-43.83"/>
</g>
<!-- 13&#45;&gt;0 -->
<g id="edge3" class="edge">
<title>13&#45;&gt;0</title>
<path fill="none" stroke="grey" stroke-width="2" d="M332.62,-145.26C287.81,-119.5 198.8,-68.33 148.96,-39.67"/>
<polygon fill="grey" stroke="grey" stroke-width="2" points="150.54,-36.54 140.12,-34.59 147.05,-42.61 150.54,-36.54"/>
</g>
<!-- 14 -->
<g id="node15" class="node">
<title>14</title>
<path fill="none" stroke="#d8b456" stroke-width="2" d="M258.5,-252C258.5,-252 187.5,-252 187.5,-252 181.5,-252 175.5,-246 175.5,-240 175.5,-240 175.5,-228 175.5,-228 175.5,-222 181.5,-216 187.5,-216 187.5,-216 258.5,-216 258.5,-216 264.5,-216 270.5,-222 270.5,-228 270.5,-228 270.5,-240 270.5,-240 270.5,-246 264.5,-252 258.5,-252"/>
<text text-anchor="middle" x="223" y="-231.5" font-family="sans" font-size="10.00">star_index_bam</text>
</g>
<!-- 14&#45;&gt;13 -->
<g id="edge21" class="edge">
<title>14&#45;&gt;13</title>
<path fill="none" stroke="grey" stroke-width="2" d="M256.51,-215.88C276.85,-205.49 302.8,-192.22 323.63,-181.58"/>
<polygon fill="grey" stroke="grey" stroke-width="2" points="325.49,-184.56 332.81,-176.9 322.31,-178.33 325.49,-184.56"/>
</g>
<!-- 15&#45;&gt;14 -->
<g id="edge24" class="edge">
<title>15&#45;&gt;14</title>
<path fill="none" stroke="grey" stroke-width="2" d="M330.27,-289.81C311.35,-280.14 286.55,-267.47 265.56,-256.74"/>
<polygon fill="grey" stroke="grey" stroke-width="2" points="267.02,-253.56 256.52,-252.13 263.83,-259.79 267.02,-253.56"/>
</g>
<!-- 16 -->
<g id="node17" class="node">
<title>16</title>
<path fill="none" stroke="#56d882" stroke-width="2" d="M419,-252C419,-252 301,-252 301,-252 295,-252 289,-246 289,-240 289,-240 289,-228 289,-228 289,-222 295,-216 301,-216 301,-216 419,-216 419,-216 425,-216 431,-222 431,-228 431,-228 431,-240 431,-240 431,-246 425,-252 419,-252"/>
<text text-anchor="middle" x="360" y="-231.5" font-family="sans" font-size="10.00">rseqc_junction_saturation</text>
</g>
<!-- 15&#45;&gt;16 -->
<g id="edge26" class="edge">
<title>15&#45;&gt;16</title>
<path fill="none" stroke="grey" stroke-width="2" d="M360,-287.7C360,-279.98 360,-270.71 360,-262.11"/>
<polygon fill="grey" stroke="grey" stroke-width="2" points="363.5,-262.1 360,-252.1 356.5,-262.1 363.5,-262.1"/>
</g>
<!-- 18 -->
<g id="node19" class="node">
<title>18</title>
<path fill="none" stroke="#56d8b1" stroke-width="2" d="M531,-252C531,-252 461,-252 461,-252 455,-252 449,-246 449,-240 449,-240 449,-228 449,-228 449,-222 455,-216 461,-216 461,-216 531,-216 531,-216 537,-216 543,-222 543,-228 543,-228 543,-240 543,-240 543,-246 537,-252 531,-252"/>
<text text-anchor="middle" x="496" y="-231.5" font-family="sans" font-size="10.00">rseqc_bam_stat</text>
</g>
<!-- 15&#45;&gt;18 -->
<g id="edge29" class="edge">
<title>15&#45;&gt;18</title>
<path fill="none" stroke="grey" stroke-width="2" d="M389.51,-289.81C408.29,-280.14 432.92,-267.47 453.75,-256.74"/>
<polygon fill="grey" stroke="grey" stroke-width="2" points="455.44,-259.82 462.73,-252.13 452.23,-253.59 455.44,-259.82"/>
</g>
<!-- 19 -->
<g id="node20" class="node">
<title>19</title>
<path fill="none" stroke="#9fd856" stroke-width="2" d="M680.5,-252C680.5,-252 573.5,-252 573.5,-252 567.5,-252 561.5,-246 561.5,-240 561.5,-240 561.5,-228 561.5,-228 561.5,-222 567.5,-216 573.5,-216 573.5,-216 680.5,-216 680.5,-216 686.5,-216 692.5,-222 692.5,-228 692.5,-228 692.5,-240 692.5,-240 692.5,-246 686.5,-252 680.5,-252"/>
<text text-anchor="middle" x="627" y="-231.5" font-family="sans" font-size="10.00">rseqc_read_distribution</text>
</g>
<!-- 15&#45;&gt;19 -->
<g id="edge31" class="edge">
<title>15&#45;&gt;19</title>
<path fill="none" stroke="grey" stroke-width="2" d="M389.74,-296.05C398.8,-293.39 408.79,-290.52 418,-288 462.11,-275.95 511.71,-263.33 551.51,-253.43"/>
<polygon fill="grey" stroke="grey" stroke-width="2" points="552.55,-256.78 561.41,-250.98 550.86,-249.99 552.55,-256.78"/>
</g>
<!-- 16&#45;&gt;13 -->
<g id="edge23" class="edge">
<title>16&#45;&gt;13</title>
<path fill="none" stroke="grey" stroke-width="2" d="M360,-215.7C360,-207.98 360,-198.71 360,-190.11"/>
<polygon fill="grey" stroke="grey" stroke-width="2" points="363.5,-190.1 360,-180.1 356.5,-190.1 363.5,-190.1"/>
</g>
<!-- 17&#45;&gt;16 -->
<g id="edge27" class="edge">
<title>17&#45;&gt;16</title>
<path fill="none" stroke="grey" stroke-width="2" d="M447.62,-287.88C432.46,-278.72 413.59,-267.34 397.26,-257.48"/>
<polygon fill="grey" stroke="grey" stroke-width="2" points="398.86,-254.36 388.49,-252.19 395.24,-260.35 398.86,-254.36"/>
</g>
<!-- 17&#45;&gt;18 -->
<g id="edge30" class="edge">
<title>17&#45;&gt;18</title>
<path fill="none" stroke="grey" stroke-width="2" d="M480.94,-287.7C483.17,-279.9 485.85,-270.51 488.33,-261.83"/>
<polygon fill="grey" stroke="grey" stroke-width="2" points="491.73,-262.68 491.11,-252.1 485,-260.76 491.73,-262.68"/>
</g>
<!-- 17&#45;&gt;19 -->
<g id="edge32" class="edge">
<title>17&#45;&gt;19</title>
<path fill="none" stroke="grey" stroke-width="2" d="M512.94,-287.88C533.49,-278.35 559.25,-266.41 581.09,-256.28"/>
<polygon fill="grey" stroke="grey" stroke-width="2" points="582.58,-259.45 590.18,-252.07 579.64,-253.1 582.58,-259.45"/>
</g>
<!-- 18&#45;&gt;13 -->
<g id="edge18" class="edge">
<title>18&#45;&gt;13</title>
<path fill="none" stroke="grey" stroke-width="2" d="M462.73,-215.88C442.68,-205.56 417.13,-192.4 396.52,-181.8"/>
<polygon fill="grey" stroke="grey" stroke-width="2" points="397.93,-178.59 387.44,-177.12 394.73,-184.81 397.93,-178.59"/>
</g>
<!-- 19&#45;&gt;13 -->
<g id="edge20" class="edge">
<title>19&#45;&gt;13</title>
<path fill="none" stroke="grey" stroke-width="2" d="M562.03,-215.97C510.26,-202.39 439.64,-183.88 397.07,-172.72"/>
<polygon fill="grey" stroke="grey" stroke-width="2" points="397.69,-169.26 387.13,-170.11 395.92,-176.04 397.69,-169.26"/>
</g>
</g>
</svg>
